<mxfile host="app.diagrams.net" modified="2022-01-25T02:17:24.946Z" agent="5.0 (Linux; Android 11; SM-G9910) AppleWebKit/537.36 (KHTML, like Gecko) Chrome/96.0.4664.104 Safari/537.36" etag="8BSU789ZdPdG9fkMgs6x" version="16.4.6" type="github">
  <diagram id="73gC0zpFda0AWExXD4cL" name="第 1 页">
    <mxGraphModel dx="1422" dy="905" grid="1" gridSize="10" guides="1" tooltips="1" connect="1" arrows="1" fold="1" page="1" pageScale="1" pageWidth="850" pageHeight="1100" math="0" shadow="0">
      <root>
        <mxCell id="0" />
        <mxCell id="1" parent="0" />
        <mxCell id="kMYKZAJqnbpn_M8Afu1v-3" style="edgeStyle=orthogonalEdgeStyle;rounded=0;orthogonalLoop=1;jettySize=auto;html=1;entryX=0.5;entryY=0;entryDx=0;entryDy=0;" edge="1" parent="1" source="kMYKZAJqnbpn_M8Afu1v-1" target="kMYKZAJqnbpn_M8Afu1v-2">
          <mxGeometry relative="1" as="geometry" />
        </mxCell>
        <mxCell id="kMYKZAJqnbpn_M8Afu1v-1" value="" style="rounded=0;whiteSpace=wrap;html=1;" vertex="1" parent="1">
          <mxGeometry x="330" y="110" width="120" height="60" as="geometry" />
        </mxCell>
        <mxCell id="kMYKZAJqnbpn_M8Afu1v-2" value="" style="rounded=0;whiteSpace=wrap;html=1;" vertex="1" parent="1">
          <mxGeometry x="330" y="280" width="120" height="60" as="geometry" />
        </mxCell>
      </root>
    </mxGraphModel>
  </diagram>
</mxfile>
